<svg xmlns="http://www.w3.org/2000/svg"><defs><style>.img{display:none}.img:target{display:inline}</style></defs><svg viewBox="0 0 1658 1658" id="shape-1" class="img"><path fill-rule="evenodd" fill="#F0F8FF" d="M44.111 517.873L517.873 44.111c58.579-58.578 153.553-58.578 212.132 0l883.884 883.884c58.578 58.579 58.578 153.553 0 212.132l-473.762 473.762c-58.579 58.578-153.553 58.578-212.132 0L44.111 730.005c-58.578-58.579-58.578-153.553 0-212.132z"/></svg><svg viewBox="0 0 1658 1658" id="shape-2" class="img"><path fill-rule="evenodd" fill="#F0F8FF" d="M1140.127 44.111l473.762 473.762c58.578 58.579 58.578 153.553 0 212.132l-883.884 883.884c-58.579 58.578-153.553 58.578-212.132 0L44.111 1140.127c-58.578-58.579-58.578-153.553 0-212.132L927.995 44.111c58.579-58.578 153.553-58.578 212.132 0z"/></svg><svg viewBox="0 0 1200 580" id="shape-3" class="img"><path fill-rule="evenodd" fill="#F0F8FF" d="M20 0h1180v580H20c-11.046 0-20-8.954-20-20V20C0 8.954 8.954 0 20 0z"/></svg><svg viewBox="0 0 1601 801" id="shape-4" class="img"><path fill-rule="evenodd" fill="#F0F8FF" d="M20 0h1580.244v800.604H20c-11.046 0-20-8.954-20-20V20C0 8.955 8.954 0 20 0z"/></svg><svg viewBox="0 0 1024 896" id="shape-5" class="img"><path fill-rule="evenodd" fill="#F0F8FF" d="M256 512V320H64c-64 0-64 64-64 64v320c0 62 64 64 64 64h64v192l194-192h192s62-4 62-64v-64H384c-128 0-128-128-128-128zm576-384H384c-64 0-64 64-64 64v320c0 60 62 64 62 64h192l194 192V576h64s64-2 64-64V192c0-64-64-64-64-64z"/></svg><svg viewBox="0 0 1046 470" id="shape-6" class="img"><path fill-rule="evenodd" fill="#F0F8FF" d="M1046 468V129L406.819 7.909C211.675-34.352 144.453 129.955 144.453 129.955L0 470c1.186 0 1027-1 1027-1"/></svg></svg>